<?xml version="1.0" encoding="utf-8"?>
<!-- Generator: Adobe Illustrator 18.1.1, SVG Export Plug-In . SVG Version: 6.00 Build 0)  -->
<svg version="1.1" id="Layer_1" xmlns="http://www.w3.org/2000/svg" xmlns:xlink="http://www.w3.org/1999/xlink" x="0px" y="0px"
	 width="472px" height="99.6px" viewBox="0 0 472 99.6" enable-background="new 0 0 472 99.6" xml:space="preserve">
<g>
	<g>
		<path fill="#11B797" d="M25.3,99.6C11.4,99.6,0,88.2,0,74.3S11.4,49,25.3,49c13.9,0,25.3,11.4,25.3,25.3S39.3,99.6,25.3,99.6z
			 M25.3,56.3c-9.9,0-18,8.1-18,18s8.1,18,18,18s18-8.1,18-18S35.2,56.3,25.3,56.3z"/>
	</g>
	<g>
		<path fill="#2DC0E2" d="M332.5,33.9c-3.7,0-7.3-1.2-10.3-3.5c-3.6-2.7-5.9-6.7-6.5-11.2c-0.6-4.5,0.6-9,3.3-12.6
			c3.2-4.3,8.2-6.7,13.5-6.7c3.7,0,7.3,1.2,10.3,3.5c3.6,2.7,5.9,6.7,6.5,11.2c0.6,4.5-0.6,9-3.3,12.6
			C342.8,31.5,337.8,33.9,332.5,33.9z M332.5,6.4c-3.3,0-6.4,1.5-8.4,4.2c-1.7,2.3-2.4,5-2.1,7.8c0.4,2.8,1.8,5.3,4.1,7
			c1.9,1.4,4.1,2.2,6.4,2.2c3.3,0,6.4-1.5,8.4-4.2c1.7-2.3,2.4-5,2.1-7.8c-0.4-2.8-1.8-5.3-4.1-7C337,7.1,334.8,6.4,332.5,6.4z"/>
	</g>
	<g>
		<path fill="#2DC0E2" d="M291.9,98.9c-6.6,0-12.9-2.6-17.6-7.3c-9.7-9.7-9.7-25.4,0-35.1c4.7-4.7,10.9-7.3,17.6-7.3
			c6.6,0,12.9,2.6,17.5,7.3c9.7,9.7,9.7,25.4,0,35.1C304.8,96.4,298.6,98.9,291.9,98.9z M291.9,55.7c-4.9,0-9.6,1.9-13,5.4
			c-7.2,7.2-7.2,18.9,0,26.1c3.5,3.5,8.1,5.4,13,5.4c4.9,0,9.6-1.9,13-5.4c7.2-7.2,7.2-18.9,0-26.1
			C301.5,57.6,296.9,55.7,291.9,55.7z"/>
	</g>
	<g>
		<path fill="#11B797" d="M390.8,49.9c0-0.7,0.6-1.4,1.4-1.4h4.7c0.7,0,1.4,0.6,1.4,1.4v42.3h19.5c0.8,0,1.4,0.6,1.4,1.4v4
			c0,0.7-0.6,1.4-1.4,1.4h-25.6c-0.8,0-1.4-0.6-1.4-1.4V49.9z"/>
		<path fill="#11B797" d="M447.2,74.7l-16.8-24c-0.6-0.9,0-2.1,1.1-2.1h5.3c0.6,0,0.9,0.4,1.1,0.6l13,18.3l13-18.3
			c0.2-0.3,0.6-0.6,1.1-0.6h5.4c1.1,0,1.7,1.2,1.1,2.1l-17,23.9v22.9c0,0.7-0.6,1.4-1.4,1.4h-4.7c-0.8,0-1.4-0.6-1.4-1.4V74.7z"/>
	</g>
	<path fill="#11B797" d="M68.7,50.1c0-0.7,0.6-1.4,1.4-1.4h28.7c0.8,0,1.4,0.6,1.4,1.4v4c0,0.7-0.6,1.4-1.4,1.4H76.1V72h19.1
		c0.7,0,1.4,0.6,1.4,1.4v3.9c0,0.7-0.6,1.4-1.4,1.4H76.1v18.9c0,0.7-0.6,1.4-1.4,1.4h-4.7c-0.8,0-1.4-0.6-1.4-1.4V50.1z"/>
	<path fill="#11B797" d="M116.5,50.1c0-0.7,0.6-1.4,1.4-1.4h28.7c0.8,0,1.4,0.6,1.4,1.4v4c0,0.7-0.6,1.4-1.4,1.4h-22.7V72H143
		c0.7,0,1.4,0.6,1.4,1.4v3.9c0,0.7-0.6,1.4-1.4,1.4h-19.1v18.9c0,0.7-0.6,1.4-1.4,1.4h-4.7c-0.8,0-1.4-0.6-1.4-1.4V50.1z"/>
	<path fill="#11B797" d="M161,91.6c0.6-0.9,1.2-2,1.9-2.9c0.6-0.9,1.6-1.2,2.4-0.6c0.4,0.4,5.9,4.9,11.5,4.9c4.9,0,8.1-3,8.1-6.7
		c0-4.3-3.7-7-10.8-10c-7.3-3.1-13-6.9-13-15.2c0-5.6,4.3-13.3,15.7-13.3c7.2,0,12.5,3.7,13.3,4.2c0.6,0.4,1.1,1.4,0.4,2.4
		c-0.6,0.9-1.2,1.9-1.8,2.7c-0.6,0.9-1.5,1.4-2.5,0.7c-0.5-0.3-5.5-3.6-9.7-3.6c-6,0-8.1,3.8-8.1,6.5c0,4.1,3.2,6.6,9.1,9
		c8.3,3.4,15.4,7.3,15.4,16.1c0,7.5-6.7,13.6-16,13.6c-8.7,0-14.3-4.6-15.4-5.7C160.8,93.4,160.3,92.9,161,91.6z"/>
	<path fill="#11B797" d="M209.9,50.1c0-0.7,0.6-1.4,1.4-1.4h4.7c0.8,0,1.4,0.6,1.4,1.4v20h26.2v-20c0-0.7,0.6-1.4,1.4-1.4h4.7
		c0.7,0,1.4,0.6,1.4,1.4v47.5c0,0.7-0.6,1.4-1.4,1.4H245c-0.8,0-1.4-0.6-1.4-1.4V76.8h-26.2v20.7c0,0.7-0.6,1.4-1.4,1.4h-4.7
		c-0.7,0-1.4-0.6-1.4-1.4V50.1z"/>
	<path fill="#11B797" d="M336,50.1c0-0.7,0.6-1.4,1.4-1.4h19.5c8.6,0,15.6,6.8,15.6,15.3c0,6.6-4.4,12-10.6,14.6l9.8,18.2
		c0.5,0.9,0,2.1-1.2,2.1h-5.6c-0.6,0-1-0.4-1.1-0.6l-9.5-19h-10.8v18.3c0,0.7-0.6,1.4-1.4,1.4h-4.7c-0.8,0-1.4-0.6-1.4-1.4V50.1z
		 M356.2,73.1c4.7,0,8.7-3.9,8.7-8.9c0-4.7-4.1-8.5-8.7-8.5h-12.8v17.4H356.2z"/>
	<path fill="#11B797" d="M25.5,99.6"/>
	<circle fill="#2DC0E2" cx="308.4" cy="48.6" r="2.4"/>
	<circle fill="#2DC0E2" cx="313.7" cy="41.7" r="2.4"/>
	<circle fill="#2DC0E2" cx="319" cy="34.8" r="2.4"/>
</g>
</svg>
